<svg xmlns="http://www.w3.org/2000/svg" viewBox="0 0 25 24"><path d="M12.833 17.08c.138 0 .278.039.4.117l5.083 3.208-1.496-5.79a.748.748 0 01.25-.767l4.628-3.806-6-.374a.752.752 0 01-.65-.471L12.833 3.63l-2.217 5.567a.747.747 0 01-.65.47l-6 .375 4.63 3.806a.754.754 0 01.25.767l-1.497 5.79 5.083-3.208a.743.743 0 01.4-.116zM7.223 22c-.296 0-.59-.091-.84-.275a1.407 1.407 0 01-.538-1.497l1.428-5.525-4.422-3.634c-.452-.371-.629-.972-.449-1.53s.676-.943 1.264-.98l5.732-.357 2.112-5.306A1.415 1.415 0 0112.833 2c.586 0 1.105.35 1.322.894L16.267 8.2l5.731.357a1.415 1.415 0 011.265.98c.18.558.003 1.159-.45 1.53l-4.42 3.634 1.427 5.525a1.41 1.41 0 01-.538 1.497 1.416 1.416 0 01-1.6.054l-4.849-3.059-4.849 3.06c-.235.148-.498.22-.76.22z" fill="#303038" fill-rule="nonzero"/></svg>