<svg xmlns="http://www.w3.org/2000/svg" viewBox="0 0 27 24"><path d="M17.568 12.818a1.396 1.396 0 01-.512.556 1.44 1.44 0 01-.767.201 1.46 1.46 0 01-.764-.2 1.394 1.394 0 01-.516-.557 1.746 1.746 0 01-.186-.818c0-.31.063-.583.186-.819s.296-.422.516-.555c.221-.134.475-.202.764-.202.294 0 .55.068.767.202.218.133.39.32.512.555.124.236.186.51.186.82 0 .308-.062.581-.186.817m.854-2.988a2.806 2.806 0 00-.945-.614A3.188 3.188 0 0016.29 9c-.43 0-.827.072-1.189.216-.363.145-.678.35-.946.614a2.838 2.838 0 00-.626.95 3.213 3.213 0 00-.224 1.22c0 .446.075.852.224 1.22.151.368.36.684.626.95.268.264.583.468.946.613a3.19 3.19 0 001.19.217c.428 0 .825-.073 1.187-.217.362-.145.678-.349.945-.614.27-.265.477-.58.626-.949a3.2 3.2 0 00.225-1.22c0-.447-.075-.853-.225-1.22a2.78 2.78 0 00-.626-.95m-5.79-.72H7.844c-.079 0-.118.042-.118.126v1.134c0 .078.04.118.118.118h1.661v4.275c0 .084.042.126.126.126h1.221c.084 0 .126-.042.126-.126v-4.275h1.654c.083 0 .125-.04.125-.118V9.236c0-.084-.042-.126-.125-.126M17.5 19.5h-8C5.364 19.5 2 16.135 2 12c0-4.136 3.364-7.5 7.5-7.5h8c4.135 0 7.5 3.364 7.5 7.5 0 4.135-3.365 7.5-7.5 7.5m0-16.5h-8c-4.963 0-9 4.037-9 9s4.037 9 9 9h8c4.962 0 9-4.037 9-9s-4.038-9-9-9" fill="#303038" fill-rule="nonzero"/></svg>