<svg xmlns="http://www.w3.org/2000/svg" viewBox="0 0 20 20"><path d="M13.25 12.75h-6.5a.75.75 0 000 1.5h6.5a.75.75 0 000-1.5zm0-3.5h-6.5a.75.75 0 000 1.5h6.5a.75.75 0 000-1.5zm0-3.5h-6.5a.75.75 0 000 1.5h6.5a.75.75 0 000-1.5zm2.75 11a.25.25 0 01-.25.25H4.25a.25.25 0 01-.25-.25V3.25A.25.25 0 014.25 3h11.5a.25.25 0 01.25.25v13.5zM15.75 1.5H4.25c-.965 0-1.75.785-1.75 1.75v13.5c0 .965.785 1.75 1.75 1.75h11.5c.965 0 1.75-.785 1.75-1.75V3.25c0-.965-.785-1.75-1.75-1.75z" fill="#303038" fill-rule="nonzero"/></svg>